# xmcd CD database file
#
# Track frame offsets:
#	150
#	18117
#	35249
#	57520
#	78158
#	97588
#	115094
#	134339
#	148955
#	163763
#	178952
#	193220
#	212742
#	228381
#	247969
#	265308
#	282704
#
# Disc length: 3978 seconds
#
# Revision: 1
# Processed by: cddbd v1.5.2PL0 Copyright (c) Steve Scherf et al.
# Submitted via: CDex 1.51
#
DISCID=fd0f8811
DTITLE=Reba McEntire - Reba - 50 Greatest Hits [CD 2)
DYEAR=2008
DGENRE=Country
TTITLE0=Reba McEntire - You Lie
TTITLE1=Reba McEntire - Rumor Has It
TTITLE2=Reba McEntire - Fancy
TTITLE3=Reba McEntire - Fallin' Out Of Love
TTITLE4=Reba McEntire - For My Broken Heart
TTITLE5=Reba McEntire - Is There Life Out There
TTITLE6=Reba McEntire - The Night The Lights Went Out In Georgia
TTITLE7=Reba McEntire - The Greatest Man I Never Knew
TTITLE8=Reba McEntire - Take It Back
TTITLE9=Reba McEntire with Vince Gill - The Heart Won't Lie
TTITLE10=Reba McEntire - It's Your Call
TTITLE11=Reba McEntire with Linda Davis - Does He Love You
TTITLE12=Reba McEntire - Why Haven't I Heard From You
TTITLE13=Reba McEntire - She Thinks His Name Was John
TTITLE14=Reba McEntire - Till You Love Me
TTITLE15=Reba McEntire - The Heart Is A Lonely Hunter
TTITLE16=Reba McEntire - And Still
EXTD=Reba 50 Greatest Hits Disc 2 YEAR: 2008
EXTT0=
EXTT1=
EXTT2=
EXTT3=
EXTT4=
EXTT5=
EXTT6=
EXTT7=
EXTT8=
EXTT9=
EXTT10=
EXTT11=
EXTT12=
EXTT13=
EXTT14=
EXTT15=
EXTT16=
PLAYORDER=
